<svg version="1.1" id="Layer_1" xmlns="http://www.w3.org/2000/svg" xmlns:xlink="http://www.w3.org/1999/xlink" x="0px" y="0px" width="16px" height="16px" viewBox="0 0 16 16" enable-background="new 0 0 16 16" xml:space="preserve">
  <g id="icon">
    <g>
      <polygon points="3.5,12.5 5.074,12.5 3.5,11.097" fill="#FFFFFF" stroke-linejoin="miter"/>
      <path d="M1.5,2.5v1.365L13.99,14.5H15c0.276,0,0.5,-0.224,0.5,-0.5V2.5H1.5z" fill="#FFFFFF"/>
    </g>
    <path d="M1,2v1.439l1,0.851V3h13l0.001,11l-1.598,0l1.138,0.969c0.012,0.01,0.023,0.021,0.034,0.031H15c0.551,0,1,-0.449,1,-1V2H1z" fill="#6D6E71"/>
    <path d="M16,3H1V1c0,-0.552,0.448,-1,1,-1h13c0.552,0,1,0.448,1,1V3z" fill="#217346"/>
    <rect x="8.5" y="4.5" width="5" height="2" fill="#E6E7E8"/>
    <path d="M8.5,7h5c0.276,0,0.5,-0.224,0.5,-0.5V4.5c0,-0.276,-0.224,-0.5,-0.5,-0.5H8.5c-0.276,0,-0.5,0.224,-0.5,0.5v2C8,6.776,8.224,7,8.5,7zM9,5h4v1H9V5z" fill="#B4B4B5"/>
    <polygon points="11.641,12.5 13.5,12.5 13.5,10.5 9.292,10.5" fill="#E6E7E8" stroke-linejoin="miter"/>
    <path d="M9.88,11H13v1h-1.946l1.174,1H13.5c0.276,0,0.5,-0.224,0.5,-0.5v-2c0,-0.276,-0.224,-0.5,-0.5,-0.5H8.705L9.88,11z" fill="#B4B4B5"/>
    <path d="M4.007,6H6.5c0.276,0,0.5,-0.224,0.5,-0.5s-0.224,-0.5,-0.5,-0.5H3.5c-0.171,0,-0.322,0.086,-0.412,0.217L4.007,6z" fill="#B4B4B5"/>
    <path d="M6.996,8.544C6.997,8.529,7,8.515,7,8.5c0,-0.276,-0.224,-0.5,-0.5,-0.5h-0.144L6.996,8.544z" fill="#B4B4B5"/>
    <path d="M8.5,9h5c0.276,0,0.5,-0.224,0.5,-0.5s-0.224,-0.5,-0.5,-0.5H8.5c-0.276,0,-0.5,0.224,-0.5,0.5S8.224,9,8.5,9z" fill="#B4B4B5"/>
    <polygon points="3.5,12 4.513,12 3.5,11.097" fill="#B4B4B5" stroke-linejoin="miter"/>
    <polygon points="11,11.954 11,11 9.88,11" fill="#529FBF" stroke-linejoin="miter" opacity="0.47"/>
    <path d="M0,4.195v11.609c0,0.109,0.088,0.196,0.196,0.196H13.83c0.183,0,0.267,-0.228,0.127,-0.346L0.324,4.045C0.196,3.937,0,4.028,0,4.195zM2.6,9.089L7.436,13.4H2.6V9.089z" fill-rule="evenodd" fill="#EAB765"/>
  </g>
</svg>