<svg version="1.1" id="Layer_1" xmlns="http://www.w3.org/2000/svg" xmlns:xlink="http://www.w3.org/1999/xlink" x="0px" y="0px" width="32px" height="32px" viewBox="0 0 32 32" enable-background="new 0 0 32 32" xml:space="preserve">
  <g id="icon">
    <rect x="3" y="2.5" width="26" height="26.5" fill-rule="evenodd" fill="#FFFFFF"/>
    <path d="M2,2.8v26.4c0,0.442,0.358,0.8,0.8,0.8h26.4c0.442,0,0.8,-0.358,0.8,-0.8V2.8c0,-0.442,-0.358,-0.8,-0.8,-0.8H2.8C2.358,2,2,2.358,2,2.8zM3,29V3h26v26H3z" fill="#6D6E71"/>
    <path d="M13.863,23.714c-0.043,0,-0.098,-0.033,-0.162,-0.097l-2.372,-2.372c-0.029,-0.029,-0.058,-0.05,-0.079,-0.065l-0.002,-0.003L6.26,16.172c-0.098,-0.099,-0.095,-0.257,0.007,-0.359l1.775,-1.775c0.052,-0.052,0.111,-0.079,0.175,-0.079c0.069,0,0.128,0.025,0.177,0.074l5.375,5.445L23.896,9.416c0.044,-0.044,0.096,-0.066,0.154,-0.066c0.068,0,0.136,0.031,0.192,0.086l1.86,1.86c0.098,0.098,0.098,0.146,0.098,0.161c0,0.099,-0.025,0.132,-0.054,0.161l-12.111,12.03C14.005,23.679,13.958,23.714,13.863,23.714z" fill="#3E79B4"/>
  </g>
</svg>