<svg version="1.1" id="Layer_1" xmlns="http://www.w3.org/2000/svg" xmlns:xlink="http://www.w3.org/1999/xlink" x="0px" y="0px" width="16px" height="16px" viewBox="0 0 16 16" enable-background="new 0 0 16 16" xml:space="preserve">
  <g id="icon">
    <rect x="1" y="0.5" width="14" height="14.5" fill-rule="evenodd" fill="#FFFFFF"/>
    <path d="M0,0.8v14.4c0,0.442,0.358,0.8,0.8,0.8h14.4c0.442,0,0.8,-0.358,0.8,-0.8V0.8c0,-0.442,-0.358,-0.8,-0.8,-0.8H0.8C0.358,0,0,0.358,0,0.8zM1,15V1h14v14H1z" fill-rule="evenodd" fill="#6D6E71"/>
    <path d="M6.842,12.014c-0.008,0,-0.029,-0.01,-0.058,-0.04l-1.265,-1.265c-0.013,-0.013,-0.028,-0.025,-0.042,-0.036L2.615,7.803c-0.036,-0.037,-0.035,-0.096,0.004,-0.135l0.947,-0.947c0.03,-0.03,0.056,-0.03,0.065,-0.03c0.027,0,0.047,0.009,0.066,0.028l3.095,3.133l5.73,-5.696c0.016,-0.016,0.034,-0.024,0.054,-0.024c0.025,0,0.052,0.013,0.074,0.034l0.992,0.992c0.03,0.03,0.041,0.05,0.041,0.058c0,0.041,-0.008,0.048,-0.017,0.057l-6.76,6.717C6.892,12.005,6.876,12.014,6.842,12.014z" fill="#3E79B4"/>
  </g>
</svg>