<svg version="1.1" id="Layer_1" xmlns="http://www.w3.org/2000/svg" xmlns:xlink="http://www.w3.org/1999/xlink" x="0px" y="0px" width="32px" height="32px" viewBox="0 0 32 32" enable-background="new 0 0 32 32" xml:space="preserve">
  <g id="icon">
    <path d="M15.95,18c-1.077,0,-1.95,-0.873,-1.95,-1.95V8H4.867C3.283,8,2,9.283,2,10.867v14.267C2,26.717,3.283,28,4.867,28h19.267c1.583,0,2.867,-1.283,2.867,-2.867V18H15.95z" fill="#F1F2F2"/>
    <path d="M26,18v7.133c0,1.029,-0.837,1.867,-1.867,1.867H4.867C3.837,27,3,26.163,3,25.133V10.867C3,9.837,3.837,9,4.867,9H14V7H4.867C2.735,7,1,8.735,1,10.867v14.267C1,27.265,2.735,29,4.867,29h19.267c2.132,0,3.867,-1.735,3.867,-3.867V18H26z" fill="#6D6E71"/>
    <path d="M29.9,16.5H16.1c-0.33,0,-0.6,-0.27,-0.6,-0.6V2.1c0,-0.33,0.27,-0.6,0.6,-0.6h13.8c0.33,0,0.6,0.27,0.6,0.6v13.8C30.5,16.23,30.23,16.5,29.9,16.5z" fill="#FFFFFF" stroke="#6D6E71" stroke-width="1" stroke-miterlimit="10"/>
    <path d="M17,12.763l3.578,-4.166c0.115,-0.145,0.352,-0.145,0.466,0.001l1.348,1.7l-1.626,1.968l0.206,0.272l4.16,-5.057c0.115,-0.144,0.346,-0.144,0.461,0l3.349,4.203c0.037,0.047,0.057,0.103,0.057,0.161V15H17V12.763z" fill="#3E79B4"/>
    <path d="M24,5.471c0,-0.847,-0.653,-1.534,-1.458,-1.534c-0.213,0,-0.415,0.048,-0.597,0.135C21.691,3.44,21.116,3,20.447,3c-0.828,0,-1.512,0.673,-1.622,1.547c-0.506,0.162,-0.872,0.638,-0.872,1.201c0,1.124,1.041,1.233,1.732,1.236c0.014,0.007,0.029,0.008,0.045,0.008h2.954c0.017,0,0.05,-0.002,0.092,-0.01C23.548,6.954,24,6.299,24,5.471z" fill-rule="evenodd" fill="#BCBEC0"/>
  </g>
</svg>