<svg version="1.1" id="Layer_1" xmlns="http://www.w3.org/2000/svg" xmlns:xlink="http://www.w3.org/1999/xlink" x="0px" y="0px" width="32px" height="32px" viewBox="0 0 32 32" enable-background="new 0 0 32 32" xml:space="preserve">
  <g id="icon">
    <path d="M26.773,28v-1.289h1.936v-1.934H30V28H26.773zM17.617,28v-1.289h5.921V28H17.617zM8.462,28v-1.289h5.921V28H8.462zM2,28v-3.223h1.291v1.934h1.936V28H2zM28.709,22.172v-4.87H30v4.87H28.709zM2,22.172v-4.87h1.291v4.87H2zM28.709,14.698v-4.87H30v4.87H28.709zM2,14.698v-4.87h1.291v4.87H2zM28.709,7.223V5.289h-1.936V4H30v3.223H28.709zM2,7.223V4h3.227v1.289H3.291v1.934H2zM17.617,5.289V4h5.921v1.289H17.617zM8.462,5.289V4h5.921v1.289H8.462z" fill="#6D6E71"/>
  </g>
</svg>