<svg version="1.1" id="Layer_1" xmlns="http://www.w3.org/2000/svg" xmlns:xlink="http://www.w3.org/1999/xlink" x="0px" y="0px" width="32px" height="32px" viewBox="0 0 32 32" enable-background="new 0 0 32 32" xml:space="preserve">
  <g id="icon">
    <rect x="1" y="5" width="8" height="7" fill="#3E79B4"/>
    <line x1="11.5" y1="5.5" x2="30.5" y2="5.5" fill="none" stroke="#6D6E71" stroke-width="1" stroke-linecap="round" stroke-miterlimit="10" stroke-linejoin="round"/>
    <line x1="11.5" y1="8.5" x2="25.3" y2="8.5" fill="none" stroke="#6D6E71" stroke-width="1" stroke-linecap="round" stroke-miterlimit="10" stroke-linejoin="round"/>
    <line x1="11.5" y1="11.5" x2="22.7" y2="11.5" fill="none" stroke="#6D6E71" stroke-width="1" stroke-linecap="round" stroke-miterlimit="10" stroke-linejoin="round"/>
    <line x1="1.5" y1="14.5" x2="20.5" y2="14.5" fill="none" stroke="#6D6E71" stroke-width="1" stroke-linecap="round" stroke-miterlimit="10" stroke-linejoin="round"/>
    <line x1="1.5" y1="17.5" x2="18" y2="17.5" fill="none" stroke="#6D6E71" stroke-width="1" stroke-linecap="round" stroke-miterlimit="10" stroke-linejoin="round"/>
    <line x1="1.5" y1="20.5" x2="15.8" y2="20.5" fill="none" stroke="#6D6E71" stroke-width="1" stroke-linecap="round" stroke-miterlimit="10" stroke-linejoin="round"/>
    <line x1="1.5" y1="23.5" x2="13.5" y2="23.5" fill="none" stroke="#6D6E71" stroke-width="1" stroke-linecap="round" stroke-miterlimit="10" stroke-linejoin="round"/>
    <line x1="1.5" y1="26.5" x2="11.5" y2="26.5" fill="none" stroke="#6D6E71" stroke-width="1" stroke-linecap="round" stroke-miterlimit="10" stroke-linejoin="round"/>
    <path d="M31,26.7c0,0.166,-0.134,0.3,-0.3,0.3h-1.925c-0.249,0,-0.428,-0.062,-0.537,-0.186c-0.11,-0.124,-0.16,-0.284,-0.152,-0.479L28,22h-8.2l-3.526,4.334c-0.13,0.169,-0.308,0.322,-0.532,0.459c-0.224,0.138,-0.456,0.206,-0.696,0.206h-1.511c-0.252,0,-0.392,-0.291,-0.234,-0.488l14.763,-18.4c0.057,-0.071,0.143,-0.112,0.234,-0.112H30.7c0.166,0,0.3,0.134,0.3,0.3V26.7zM28.1,20c0,0,-0.207,-7.934,-0.1,-8.7c-0.25,0.379,0.006,0.076,-0.227,0.402c-0.233,0.326,-0.449,0.616,-0.649,0.871L21.265,20H28.1z" fill="#3E79B4"/>
  </g>
</svg>