<svg version="1.1" id="Layer_1" xmlns="http://www.w3.org/2000/svg" xmlns:xlink="http://www.w3.org/1999/xlink" x="0px" y="0px" width="16px" height="16px" viewBox="0 0 16 16" enable-background="new 0 0 16 16" xml:space="preserve">
  <g id="icon">
    <path d="M11.5,3.5c-2.142,0,-3.934,1.496,-4.388,3.5H4.266c-0.368,-0.741,-1.132,-1.25,-2.016,-1.25C1.007,5.75,0,6.757,0,8c0,1.243,1.007,2.25,2.25,2.25c0.883,0,1.647,-0.509,2.016,-1.25h2.846c0.455,2.004,2.247,3.5,4.388,3.5c2.485,0,4.5,-2.015,4.5,-4.5C16,5.515,13.985,3.5,11.5,3.5zM11.5,10.6c-1.436,0,-2.6,-1.164,-2.6,-2.6c0,-1.436,1.164,-2.6,2.6,-2.6c1.436,0,2.6,1.164,2.6,2.6C14.1,9.436,12.936,10.6,11.5,10.6z" fill="#3E79B4"/>
  </g>
</svg>