<svg version="1.1" id="Layer_1" xmlns="http://www.w3.org/2000/svg" xmlns:xlink="http://www.w3.org/1999/xlink" x="0px" y="0px" width="32px" height="32px" viewBox="0 0 32 32" enable-background="new 0 0 32 32" xml:space="preserve">
  <g id="icon">
    <path d="M30.4,15.998C30.4,23.952,23.952,30.4,15.998,30.4S1.596,23.952,1.596,15.998S8.044,1.596,15.998,1.596S30.4,8.044,30.4,15.998z" fill="#FFFFFF"/>
    <path d="M16,31c-8.271,0,-15,-6.729,-15,-15C1,7.729,7.729,1,16,1c8.271,0,15,6.729,15,15C31,24.271,24.271,31,16,31zM16,2.178c-7.621,0,-13.822,6.2,-13.822,13.822s6.2,13.822,13.822,13.822s13.822,-6.2,13.822,-13.822S23.621,2.178,16,2.178z" fill="#6D6E71"/>
    <path d="M23.5,16c0,4.142,-3.358,7.5,-7.5,7.5s-7.5,-3.358,-7.5,-7.5s3.358,-7.5,7.5,-7.5S23.5,11.858,23.5,16z" fill="#3E79B4"/>
  </g>
</svg>