<svg version="1.1" id="Layer_1" xmlns="http://www.w3.org/2000/svg" xmlns:xlink="http://www.w3.org/1999/xlink" x="0px" y="0px" width="32px" height="32px" viewBox="0 0 32 32" enable-background="new 0 0 32 32" xml:space="preserve">
  <g id="icon">
    <path d="M16.31,26.828l4.139,-5.167c0.219,-0.263,0.032,-0.661,-0.31,-0.661h-8.278c-0.342,0,-0.529,0.399,-0.31,0.661l4.139,5.167C15.851,27.022,16.149,27.022,16.31,26.828z" fill="#FFFFFF"/>
    <path d="M8,19.5v9c0,0.276,0.224,0.5,0.5,0.5h15c0.276,0,0.5,-0.224,0.5,-0.5v-9c0,-0.276,-0.224,-0.5,-0.5,-0.5H8.5C8.224,19,8,19.224,8,19.5zM11.861,21h8.278c0.342,0,0.529,0.399,0.31,0.661l-4.139,5.167c-0.161,0.193,-0.458,0.193,-0.62,0l-4.139,-5.167C11.332,21.399,11.519,21,11.861,21z" fill="#3E79B4"/>
    <path d="M20.139,11c0.342,0,0.529,-0.399,0.31,-0.661L16.31,5.172c-0.161,-0.193,-0.458,-0.193,-0.62,0l-4.139,5.167c-0.219,0.263,-0.032,0.661,0.31,0.661H20.139z" fill="#FFFFFF"/>
    <path d="M8.5,13h15c0.276,0,0.5,-0.224,0.5,-0.5V3.5c0,-0.276,-0.224,-0.5,-0.5,-0.5H8.5c-0.276,0,-0.5,0.224,-0.5,0.5v9C8,12.776,8.224,13,8.5,13zM11.551,10.339l4.139,-5.167c0.161,-0.193,0.458,-0.193,0.62,0l4.139,5.167c0.219,0.263,0.032,0.661,-0.31,0.661h-8.278C11.519,11,11.332,10.601,11.551,10.339z" fill="#3E79B4"/>
    <rect x="8" y="15" width="16" height="2" fill="#6D6E71"/>
  </g>
</svg>