<svg version="1.1" id="Layer_1" xmlns="http://www.w3.org/2000/svg" xmlns:xlink="http://www.w3.org/1999/xlink" x="0px" y="0px" width="32px" height="32px" viewBox="0 0 32 32" enable-background="new 0 0 32 32" xml:space="preserve">
  <g id="icon">
    <path d="M30,29.5H2c-0.276,0,-0.5,-0.258,-0.5,-0.576V3.6h29v25.324C30.5,29.242,30.276,29.5,30,29.5z" fill="#FFFFFF"/>
    <path d="M23,3H6H2h-0.067C1.418,3,1,3.418,1,3.933V4v25c0,0.552,0.448,1,1,1h28c0.552,0,1,-0.448,1,-1V4v-0.067c0,-0.515,-0.418,-0.933,-0.933,-0.933H23zM23,29H2V4h21V29zM30.001,29H24V4h6L30.001,29z" fill="#6D6E71"/>
    <path d="M26.905,27.944l-1.653,-2.688c-0.087,-0.101,-0.013,-0.256,0.124,-0.256h3.306c0.137,0,0.211,0.154,0.124,0.256l-1.653,2.688C27.088,28.019,26.97,28.019,26.905,27.944z" fill="#6D6E71"/>
    <path d="M26.905,5.056l-1.653,2.688c-0.087,0.101,-0.013,0.256,0.124,0.256h3.306c0.137,0,0.211,-0.154,0.124,-0.256l-1.653,-2.688C27.088,4.981,26.97,4.981,26.905,5.056z" fill="#6D6E71"/>
    <path d="M20.5,11H4.5c-0.276,0,-0.5,-0.224,-0.5,-0.5v0c0,-0.276,0.224,-0.5,0.5,-0.5h16c0.276,0,0.5,0.224,0.5,0.5v0C21,10.776,20.776,11,20.5,11zM20.5,8H4.5c-0.276,0,-0.5,-0.224,-0.5,-0.5v0c0,-0.276,0.224,-0.5,0.5,-0.5h16c0.276,0,0.5,0.224,0.5,0.5v0C21,7.776,20.776,8,20.5,8zM21,13.5L21,13.5c0,-0.276,-0.224,-0.5,-0.5,-0.5H4.5c-0.276,0,-0.5,0.224,-0.5,0.5l0,0c0,0.276,0.224,0.5,0.5,0.5h16C20.776,14,21,13.776,21,13.5zM21,16.5L21,16.5c0,-0.276,-0.224,-0.5,-0.5,-0.5H4.5c-0.276,0,-0.5,0.224,-0.5,0.5l0,0c0,0.276,0.224,0.5,0.5,0.5h16C20.776,17,21,16.776,21,16.5zM21,19.5L21,19.5c0,-0.276,-0.224,-0.5,-0.5,-0.5H4.5c-0.276,0,-0.5,0.224,-0.5,0.5l0,0c0,0.276,0.224,0.5,0.5,0.5h16C20.776,20,21,19.776,21,19.5zM21,22.5L21,22.5c0,-0.276,-0.224,-0.5,-0.5,-0.5H4.5c-0.276,0,-0.5,0.224,-0.5,0.5l0,0c0,0.276,0.224,0.5,0.5,0.5h16C20.776,23,21,22.776,21,22.5zM21,25.5L21,25.5c0,-0.276,-0.224,-0.5,-0.5,-0.5H4.5c-0.276,0,-0.5,0.224,-0.5,0.5l0,0c0,0.276,0.224,0.5,0.5,0.5h16C20.776,26,21,25.776,21,25.5z" fill="#3E79B4"/>
  </g>
</svg>