<svg version="1.1" id="Layer_1" xmlns="http://www.w3.org/2000/svg" xmlns:xlink="http://www.w3.org/1999/xlink" x="0px" y="0px" width="32px" height="32px" viewBox="0 0 32 32" enable-background="new 0 0 32 32" xml:space="preserve">
  <g id="icon">
    <path d="M4.5,6.5v10.305C5.557,16.29,6.745,16,8,16c4.418,0,8,3.582,8,8c0,1.669,-0.512,3.218,-1.386,4.5H29.2c0.693,0,1.3,-0.6,1.3,-1.3V6.5H4.5z" fill-rule="evenodd" fill="#FFFFFF"/>
    <path d="M4,6v11.073c0.32,-0.185,0.654,-0.349,1,-0.489V7h25v20.2c0,0.419,-0.381,0.8,-0.8,0.8H14.927c-0.203,0.351,-0.432,0.685,-0.684,1H29.2c0.976,0,1.8,-0.824,1.8,-1.8V6H4z" fill="#797979"/>
    <path d="M29.66,2H27v3h-4V2H13v3H9V2H5.3c-0.717,0,-1.3,0.583,-1.3,1.3v3.7h27V3.3C31,2.595,30.386,2,29.66,2z" fill="#3E79B4"/>
    <path d="M10,1h2v3h-2V1zM24,1v3h2V1H24z" fill="#797979"/>
    <path d="M12,9v4H7v3.064c0.328,-0.041,0.661,-0.064,1,-0.064v-2h4v3h-0.127c0.509,0.282,0.983,0.618,1.416,1H17v3h-1.584c0.131,0.324,0.243,0.657,0.332,1H17v3h-1.064c-0.042,0.34,-0.104,0.674,-0.188,1H28V9H12zM17,17h-4v-3h4V17zM17,13h-4v-3h4V13zM22,25h-4v-3h4V25zM22,21h-4v-3h4V21zM22,17h-4v-3h4V17zM22,13h-4v-3h4V13zM27,25h-4v-3h4V25zM27,21h-4v-3h4V21zM27,17h-4v-3h4V17zM27,13h-4v-3h4V13z" fill="#939393"/>
    <path d="M22,17h-4v-3h4V17z" fill="#EC5664" opacity="0.5"/>
    <path d="M17,13v5h6v-5H17zM22,17h-4v-3h4V17z" fill="#CD4C32"/>
    <path d="M8.02,17.821c3.402,0,6.159,2.758,6.159,6.159c0,3.402,-2.758,6.159,-6.159,6.159c-3.402,0,-6.159,-2.758,-6.159,-6.159C1.861,20.578,4.619,17.821,8.02,17.821z" fill-rule="evenodd" fill="#FFFFFF"/>
    <path d="M7.993,17C4.131,17,1,20.131,1,23.993c0,3.862,3.131,6.993,6.993,6.993s6.993,-3.131,6.993,-6.993C14.986,20.131,11.855,17,7.993,17zM7.993,29.917c-3.272,0,-5.925,-2.652,-5.925,-5.925c0,-3.272,2.652,-5.925,5.925,-5.925s5.925,2.652,5.925,5.925C13.917,27.265,11.265,29.917,7.993,29.917z" fill-rule="evenodd" fill="#797979"/>
    <path d="M8.336,24.592c-0.079,-0.079,-0.151,-0.149,-0.22,-0.212c0.008,-0.132,0.009,-0.281,0.01,-0.447c0.002,-0.731,-0.201,-5.348,-0.591,-5.35c-0.39,-0.002,-0.686,4.688,-0.688,5.42c-0.001,0.261,0.008,0.471,0.046,0.634c-0.095,0.232,0.067,0.418,0.439,0.792c0.517,0.522,3.56,3.108,3.836,2.834C11.445,27.989,8.853,25.113,8.336,24.592z" fill-rule="evenodd" fill="#3E79B4"/>
  </g>
</svg>